HIERARCHY
ROOT mixamorig:Hips
{
	OFFSET 0.000000 201.639420 0.000000
	CHANNELS 6 Xposition Yposition Zposition Xrotation Yrotation Zrotation
	JOINT mixamorig:Spine
	{
		OFFSET 0.006200 19.524994 -2.481800
		CHANNELS 3 Xrotation Yrotation Zrotation
		JOINT mixamorig:Spine1
		{
			OFFSET -0.000900 22.835007 -2.825400
			CHANNELS 3 Xrotation Yrotation Zrotation
			JOINT mixamorig:Spine2
			{
				OFFSET -0.020600 26.552490 -3.193300
				CHANNELS 3 Xrotation Yrotation Zrotation
				JOINT mixamorig:Neck
				{
					OFFSET -0.060000 30.701813 1.352200
					CHANNELS 3 Xrotation Yrotation Zrotation
					JOINT mixamorig:Head
					{
						OFFSET -0.087200 22.547607 3.670900
						CHANNELS 3 Xrotation Yrotation Zrotation
						JOINT mixamorig:HeadTop_End
						{
							OFFSET -0.830600 40.355194 7.893500
							CHANNELS 3 Xrotation Yrotation Zrotation
							End Site
							{
								OFFSET 0.000000 30.592346 0.000000
							}
						}
						JOINT mixamorig:RightEye
						{
							OFFSET -6.302100 18.118591 16.197100
							CHANNELS 3 Xrotation Yrotation Zrotation
							End Site
							{
								OFFSET 0.000000 30.592346 0.000000
							}
						}
						JOINT mixamorig:LeftEye
						{
							OFFSET 6.741500 18.382690 16.401899
							CHANNELS 3 Xrotation Yrotation Zrotation
							End Site
							{
								OFFSET 0.000000 30.592346 0.000000
							}
						}
					}
				}
				JOINT mixamorig:LeftShoulder
				{
					OFFSET 11.924900 18.230499 1.425400
					CHANNELS 3 Xrotation Yrotation Zrotation
					JOINT mixamorig:LeftArm
					{
						OFFSET 25.435989 -0.697632 -5.229300
						CHANNELS 3 Xrotation Yrotation Zrotation
						JOINT mixamorig:LeftForeArm
						{
							OFFSET 54.684776 0.000000 0.000000
							CHANNELS 3 Xrotation Yrotation Zrotation
							JOINT mixamorig:LeftHand
							{
								OFFSET 55.098175 0.000000 0.000000
								CHANNELS 3 Xrotation Yrotation Zrotation
								JOINT mixamorig:LeftHandMiddle1
								{
									OFFSET 23.369751 0.000000 0.000000
									CHANNELS 3 Xrotation Yrotation Zrotation
									JOINT mixamorig:LeftHandMiddle2
									{
										OFFSET 6.378677 0.000000 0.000000
										CHANNELS 3 Xrotation Yrotation Zrotation
										JOINT mixamorig:LeftHandMiddle3
										{
											OFFSET 6.148331 0.000000 0.000000
											CHANNELS 3 Xrotation Yrotation Zrotation
											JOINT mixamorig:LeftHandMiddle4
											{
												OFFSET 6.582504 0.000000 0.000000
												CHANNELS 3 Xrotation Yrotation Zrotation
												End Site
												{
													OFFSET -1.168900 6.395691 1.028606
												}
											}
										}
									}
								}
								JOINT mixamorig:LeftHandThumb1
								{
									OFFSET 7.235672 -3.848206 5.434273
									CHANNELS 3 Xrotation Yrotation Zrotation
									JOINT mixamorig:LeftHandThumb2
									{
										OFFSET 6.568451 -3.792297 3.792300
										CHANNELS 3 Xrotation Yrotation Zrotation
										JOINT mixamorig:LeftHandThumb3
										{
											OFFSET 6.063080 -3.500519 3.500518
											CHANNELS 3 Xrotation Yrotation Zrotation
											JOINT mixamorig:LeftHandThumb4
											{
												OFFSET 4.793182 -2.767334 2.767349
												CHANNELS 3 Xrotation Yrotation Zrotation
												End Site
												{
													OFFSET 0.101639 6.054260 1.275483
												}
											}
										}
									}
								}
								JOINT mixamorig:LeftHandIndex1
								{
									OFFSET 23.101074 -0.309540 4.992809
									CHANNELS 3 Xrotation Yrotation Zrotation
									JOINT mixamorig:LeftHandIndex2
									{
										OFFSET 6.226883 0.000000 0.000000
										CHANNELS 3 Xrotation Yrotation Zrotation
										JOINT mixamorig:LeftHandIndex3
										{
											OFFSET 6.094330 0.000000 0.000000
											CHANNELS 3 Xrotation Yrotation Zrotation
											JOINT mixamorig:LeftHandIndex4
											{
												OFFSET 5.482605 0.000000 0.000000
												CHANNELS 3 Xrotation Yrotation Zrotation
												End Site
												{
													OFFSET -1.427902 5.233032 0.797164
												}
											}
										}
									}
								}
								JOINT mixamorig:LeftHandRing1
								{
									OFFSET 22.299240 0.021149 -3.964172
									CHANNELS 3 Xrotation Yrotation Zrotation
									JOINT mixamorig:LeftHandRing2
									{
										OFFSET 6.321869 0.000000 0.000000
										CHANNELS 3 Xrotation Yrotation Zrotation
										JOINT mixamorig:LeftHandRing3
										{
											OFFSET 5.899796 0.000000 0.000000
											CHANNELS 3 Xrotation Yrotation Zrotation
											JOINT mixamorig:LeftHandRing4
											{
												OFFSET 6.517899 0.000000 0.000000
												CHANNELS 3 Xrotation Yrotation Zrotation
												End Site
												{
													OFFSET -1.637299 6.232208 0.980890
												}
											}
										}
									}
								}
								JOINT mixamorig:LeftHandPinky1
								{
									OFFSET 20.463791 -0.302338 -8.562233
									CHANNELS 3 Xrotation Yrotation Zrotation
									JOINT mixamorig:LeftHandPinky2
									{
										OFFSET 6.908646 0.000000 0.000000
										CHANNELS 3 Xrotation Yrotation Zrotation
										JOINT mixamorig:LeftHandPinky3
										{
											OFFSET 4.622849 0.000000 0.000000
											CHANNELS 3 Xrotation Yrotation Zrotation
											JOINT mixamorig:LeftHandPinky4
											{
												OFFSET 5.216080 0.000000 0.000000
												CHANNELS 3 Xrotation Yrotation Zrotation
												End Site
												{
													OFFSET -0.606308 5.116241 0.814926
												}
											}
										}
									}
								}
							}
						}
					}
				}
				JOINT mixamorig:RightShoulder
				{
					OFFSET -12.001300 18.284088 1.348900
					CHANNELS 3 Xrotation Yrotation Zrotation
					JOINT mixamorig:RightArm
					{
						OFFSET -25.308500 -0.751312 -5.164599
						CHANNELS 3 Xrotation Yrotation Zrotation
						JOINT mixamorig:RightForeArm
						{
							OFFSET -54.684429 0.000000 0.000000
							CHANNELS 3 Xrotation Yrotation Zrotation
							JOINT mixamorig:RightHand
							{
								OFFSET -55.150291 0.000000 0.000000
								CHANNELS 3 Xrotation Yrotation Zrotation
								JOINT mixamorig:RightHandMiddle1
								{
									OFFSET -23.317566 0.000000 0.000000
									CHANNELS 3 Xrotation Yrotation Zrotation
									JOINT mixamorig:RightHandMiddle2
									{
										OFFSET -6.378403 0.000000 0.000000
										CHANNELS 3 Xrotation Yrotation Zrotation
										JOINT mixamorig:RightHandMiddle3
										{
											OFFSET -6.148193 0.000000 0.000000
											CHANNELS 3 Xrotation Yrotation Zrotation
											JOINT mixamorig:RightHandMiddle4
											{
												OFFSET -6.583389 0.000000 0.000000
												CHANNELS 3 Xrotation Yrotation Zrotation
												End Site
												{
													OFFSET 1.171692 6.395905 1.029786
												}
											}
										}
									}
								}
								JOINT mixamorig:RightHandThumb1
								{
									OFFSET -7.190521 -3.860474 5.435846
									CHANNELS 3 Xrotation Yrotation Zrotation
									JOINT mixamorig:RightHandThumb2
									{
										OFFSET -6.567429 -3.791718 3.791708
										CHANNELS 3 Xrotation Yrotation Zrotation
										JOINT mixamorig:RightHandThumb3
										{
											OFFSET -6.062469 -3.500153 3.500166
											CHANNELS 3 Xrotation Yrotation Zrotation
											JOINT mixamorig:RightHandThumb4
											{
												OFFSET -4.792618 -2.767029 2.767022
												CHANNELS 3 Xrotation Yrotation Zrotation
												End Site
												{
													OFFSET -0.100327 6.053253 1.276754
												}
											}
										}
									}
								}
								JOINT mixamorig:RightHandIndex1
								{
									OFFSET -23.048981 -0.310791 4.992554
									CHANNELS 3 Xrotation Yrotation Zrotation
									JOINT mixamorig:RightHandIndex2
									{
										OFFSET -6.227539 0.000000 0.000000
										CHANNELS 3 Xrotation Yrotation Zrotation
										JOINT mixamorig:RightHandIndex3
										{
											OFFSET -6.095047 0.000000 0.000000
											CHANNELS 3 Xrotation Yrotation Zrotation
											JOINT mixamorig:RightHandIndex4
											{
												OFFSET -5.484772 0.000000 0.000000
												CHANNELS 3 Xrotation Yrotation Zrotation
												End Site
												{
													OFFSET 1.420593 5.237305 0.797056
												}
											}
										}
									}
								}
								JOINT mixamorig:RightHandRing1
								{
									OFFSET -22.246323 0.020569 -3.963762
									CHANNELS 3 Xrotation Yrotation Zrotation
									JOINT mixamorig:RightHandRing2
									{
										OFFSET -6.322128 0.000000 0.000000
										CHANNELS 3 Xrotation Yrotation Zrotation
										JOINT mixamorig:RightHandRing3
										{
											OFFSET -5.900024 0.000000 0.000000
											CHANNELS 3 Xrotation Yrotation Zrotation
											JOINT mixamorig:RightHandRing4
											{
												OFFSET -6.518356 0.000000 0.000000
												CHANNELS 3 Xrotation Yrotation Zrotation
												End Site
												{
													OFFSET 1.636398 6.232697 0.982186
												}
											}
										}
									}
								}
								JOINT mixamorig:RightHandPinky1
								{
									OFFSET -20.411011 -0.303314 -8.561701
									CHANNELS 3 Xrotation Yrotation Zrotation
									JOINT mixamorig:RightHandPinky2
									{
										OFFSET -6.907349 0.000000 0.000000
										CHANNELS 3 Xrotation Yrotation Zrotation
										JOINT mixamorig:RightHandPinky3
										{
											OFFSET -4.623840 0.000000 0.000000
											CHANNELS 3 Xrotation Yrotation Zrotation
											JOINT mixamorig:RightHandPinky4
											{
												OFFSET -5.218353 0.000000 0.000000
												CHANNELS 3 Xrotation Yrotation Zrotation
												End Site
												{
													OFFSET 0.602097 5.118835 0.816273
												}
											}
										}
									}
								}
							}
						}
					}
				}
			}
		}
	}
	JOINT mixamorig:LeftUpLeg
	{
		OFFSET 18.168400 -13.561905 -0.039000
		CHANNELS 3 Xrotation Yrotation Zrotation
		JOINT mixamorig:LeftLeg
		{
			OFFSET 0.577358 -80.825211 -3.695000
			CHANNELS 3 Xrotation Yrotation Zrotation
			JOINT mixamorig:LeftFoot
			{
				OFFSET -0.577356 -83.370262 -6.520700
				CHANNELS 3 Xrotation Yrotation Zrotation
				JOINT mixamorig:LeftToeBase
				{
					OFFSET 0.750401 -20.798306 25.135401
					CHANNELS 3 Xrotation Yrotation Zrotation
					JOINT mixamorig:LeftToe_End
					{
						OFFSET -0.000500 0.001200 19.917799
						CHANNELS 3 Xrotation Yrotation Zrotation
						End Site
						{
							OFFSET 0.000000 19.917805 0.000000
						}
					}
				}
			}
		}
	}
	JOINT mixamorig:RightUpLeg
	{
		OFFSET -18.162500 -13.585098 -0.041000
		CHANNELS 3 Xrotation Yrotation Zrotation
		JOINT mixamorig:RightLeg
		{
			OFFSET -0.595024 -80.945297 -3.631900
			CHANNELS 3 Xrotation Yrotation Zrotation
			JOINT mixamorig:RightFoot
			{
				OFFSET 0.595024 -83.218193 -6.561200
				CHANNELS 3 Xrotation Yrotation Zrotation
				JOINT mixamorig:RightToeBase
				{
					OFFSET -0.753601 -20.807106 25.115000
					CHANNELS 3 Xrotation Yrotation Zrotation
					JOINT mixamorig:RightToe_End
					{
						OFFSET 0.000299 0.001700 19.918200
						CHANNELS 3 Xrotation Yrotation Zrotation
						End Site
						{
							OFFSET 0.000000 19.918203 0.000000
						}
					}
				}
			}
		}
	}
}
MOTION
Frames: 5
Frame Time: 0.033333
0.796112 194.189407 -1.374187 -16.903818 -38.978927 -9.388837 7.991544 -0.056112 -0.143744 16.413457 -0.125527 -0.745990 16.413511 -0.192912 -0.721095 0.367403 7.480964 0.837547 -6.982129 21.597270 11.882992 -0.000000 -0.000000 -0.000002 -0.000000 -0.000000 -0.000002 -0.000000 -0.000000 -0.000002 -37.571078 -4.822517 1.545822 -41.628415 -7.015778 -61.684374 -0.000031 -64.995916 -0.000048 -119.359632 1.120099 32.550253 0.405924 5.507044 -52.453155 3.387132 5.308605 -65.057449 0.282010 1.797456 -17.832386 0.000005 -0.000000 0.000005 4.709218 9.560366 3.111990 19.473185 -1.474890 7.636926 -4.536176 -9.613114 1.492972 -0.000001 -0.000003 -0.000001 -0.212815 3.933708 -36.747121 2.942148 5.078884 -60.144604 0.513676 2.400813 -24.150535 -0.000003 0.000001 -0.000002 -0.074366 5.736811 -61.061413 4.055043 5.569505 -72.094935 0.582669 2.548972 -25.748000 -0.000001 0.000000 0.000002 -6.565577 4.545140 -72.425222 3.299636 5.267214 -64.107814 0.175344 1.424011 -14.038891 0.000000 -0.000004 0.000000 -41.176294 -8.605646 -9.942312 -46.819666 58.242970 100.948693 -0.000667 98.442997 0.000624 -52.463079 -17.216612 -29.273136 3.413057 -7.186256 51.650263 6.296821 -4.359589 110.634701 0.248719 -1.503059 18.790253 0.000000 0.000001 -0.000001 8.377147 -4.904125 11.022015 21.620197 -18.183900 -18.379226 -0.702944 -49.821196 -32.535200 0.000000 0.000001 0.000001 -0.920032 1.683580 12.434992 0.748121 -2.533462 32.898293 0.615647 -2.316057 29.767832 0.000002 0.000001 0.000000 -3.349037 -2.600435 57.010575 5.440863 -4.590905 99.698147 1.689400 -3.590693 50.382221 -0.000001 -0.000001 -0.000002 -3.996439 -3.303931 64.593857 4.058832 -4.618670 82.610530 2.315561 -4.026787 59.787221 -0.000002 0.000001 -0.000000 -22.428806 42.939965 28.554538 22.067288 0.654899 -0.657936 4.271061 1.199841 -2.585374 -0.000076 0.000001 -0.000007 0.000000 -0.000000 -0.000000 2.240280 5.288774 -5.424520 31.201390 -0.433667 1.065881 -18.912596 -17.324201 4.271716 -0.020497 0.000005 0.000001 0.000000 -0.000000 0.000000 
0.714342 194.197586 -1.341534 -16.881123 -38.977530 -9.353202 7.976397 -0.073618 -0.138148 16.391460 -0.164757 -0.729956 16.391638 -0.232134 -0.705121 0.389510 7.523646 0.856750 -6.939737 21.730477 11.826333 0.000001 0.000000 0.000001 0.000001 0.000000 0.000001 0.000001 0.000000 0.000001 -37.455374 -5.273663 3.036509 -41.176055 -8.376491 -62.252619 -0.000025 -59.595374 -0.000031 -121.960295 1.674774 27.179225 0.299241 5.301669 -50.251652 2.497327 4.797263 -54.980724 0.285177 1.807258 -17.933022 0.000002 -0.000000 -0.000000 5.321248 11.220267 3.133040 19.473180 -1.474878 7.636915 -4.536180 -9.613126 1.492982 0.000001 -0.000001 -0.000001 -0.557246 3.089377 -32.515443 2.650627 4.900738 -56.794126 0.368932 2.047900 -20.422274 -0.000005 0.000001 -0.000003 -0.055745 5.757270 -61.203727 3.566592 5.388090 -66.982408 0.593088 2.570441 -25.981399 -0.000001 0.000002 -0.000001 -6.080938 5.049684 -74.181025 2.697053 4.930701 -57.335722 0.080463 0.968674 -9.496895 -0.000001 0.000002 -0.000002 -36.935115 -8.062798 -7.598823 -48.154715 57.829716 99.637235 0.000686 95.107857 -0.000538 -48.945115 -17.356163 -26.811737 3.283772 -7.174955 49.613787 6.235670 -4.382076 109.832297 0.222571 -1.423964 17.767112 0.000001 0.000000 -0.000001 8.445327 -5.064776 11.035120 21.775639 -18.186482 -18.198308 -0.566978 -49.805637 -32.387838 0.000002 0.000001 0.000000 -0.620597 1.586634 9.159833 0.296404 -1.636512 20.531275 0.532149 -2.163688 27.631884 0.000001 0.000000 -0.000005 -3.238841 -2.643061 56.791759 5.412004 -4.595738 99.337445 1.680909 -3.583640 50.246263 -0.000001 -0.000000 0.000003 -3.891592 -3.303508 64.238161 4.064504 -4.619393 82.680970 2.291699 -4.012852 59.447009 -0.000003 0.000002 0.000000 -22.375596 42.942058 28.513424 22.036374 0.656981 -0.652716 4.271463 1.205177 -2.619246 -0.004539 -0.000003 0.000001 -0.000000 -0.000001 0.000000 2.267505 5.279358 -5.442520 31.180777 -0.444947 1.070878 -18.931329 -17.309514 4.260529 0.001444 -0.000001 0.000000 0.000000 0.000002 -0.000000 
0.638645 194.205322 -1.299053 -16.841522 -38.958074 -9.279455 7.961657 -0.093489 -0.119532 16.370848 -0.206170 -0.688022 16.371258 -0.274229 -0.663440 0.357931 7.593839 0.828835 -6.988736 21.909722 11.755485 -0.000002 0.000000 0.000000 -0.000002 0.000000 0.000000 -0.000002 0.000000 0.000000 -37.135394 -6.407452 5.439204 -40.331505 -7.829162 -63.185404 -0.000017 -56.581748 -0.000014 -123.763916 1.882379 23.196675 0.181011 5.066865 -47.901664 1.627375 4.052802 -43.741406 0.289313 1.819960 -18.063487 0.000002 0.000001 0.000001 5.992170 13.088305 3.132731 19.473192 -1.474902 7.636919 -4.536186 -9.613102 1.492969 0.000001 -0.000000 -0.000000 -0.821115 2.122083 -27.820324 2.340255 4.683664 -53.080221 0.235157 1.644765 -16.272431 -0.000000 -0.000000 -0.000001 -0.037000 5.783846 -61.432408 3.042954 5.135241 -61.277145 0.604471 2.593638 -26.234004 0.000001 -0.000000 0.000002 -5.511292 5.581327 -76.150489 2.079216 4.476266 -49.811794 0.017416 0.452021 -4.415390 0.000004 0.000001 0.000003 -32.831777 -7.210613 -5.625308 -49.825233 57.041020 98.766359 -0.003493 91.663618 0.003482 -45.546519 -17.148547 -24.361285 2.921615 -7.057438 45.290042 6.044956 -4.446025 107.354735 0.157455 -1.201986 14.925389 0.000002 -0.000000 -0.000001 8.445327 -5.064777 11.035109 21.775635 -18.186490 -18.198313 -0.566994 -49.805627 -32.387859 0.000000 -0.000000 0.000000 -0.409071 0.923096 7.577681 0.273950 -1.575228 19.729452 0.309341 -1.670630 20.979500 0.000002 -0.000000 0.000004 -3.086623 -2.684080 56.340560 5.310414 -4.611229 98.071900 1.665998 -3.571225 50.007684 -0.000001 0.000001 -0.000001 -3.793980 -3.227098 63.357477 4.057508 -4.618488 82.593796 2.227625 -3.974402 58.526894 0.000000 -0.000000 0.000002 -22.278904 42.922189 28.388501 21.979182 0.679703 -0.627783 4.289924 1.216738 -2.659181 -0.026425 -0.000005 0.000001 -0.000000 -0.000001 0.000000 2.281313 5.262302 -5.483010 31.171307 -0.449249 1.075878 -18.961020 -17.317945 4.249001 -0.000745 -0.000001 -0.000002 -0.000000 -0.000001 0.000000 
0.582090 194.209656 -1.229103 -16.781968 -38.932618 -9.148453 7.951445 -0.110180 -0.085542 16.358366 -0.238588 -0.625576 16.358960 -0.307711 -0.601467 0.204862 7.680948 0.718899 -7.078571 22.018360 11.609343 -0.000000 0.000001 0.000002 -0.000000 0.000001 0.000002 -0.000000 0.000001 0.000002 -37.412440 -5.866300 5.729548 -38.578664 -9.129280 -63.808180 0.000036 -57.068177 0.000016 -124.413030 0.673200 21.417023 0.076805 4.838853 -45.677730 0.950909 3.201312 -33.079231 0.293862 1.833838 -18.206105 0.000001 0.000000 -0.000000 6.608170 14.844467 3.110269 19.473175 -1.474881 7.636915 -4.536168 -9.613121 1.492988 0.000003 -0.000000 -0.000002 -0.945965 1.203415 -23.319297 2.059542 4.459631 -49.559419 0.134968 1.251581 -12.309798 -0.000000 0.000001 -0.000000 -0.024056 5.806214 -61.647833 2.573806 4.849779 -55.890171 0.617047 2.618992 -26.510749 -0.000002 -0.000002 0.000002 -4.923675 6.046135 -77.962286 1.555496 3.976514 -42.714688 0.000096 -0.033280 0.324757 -0.000004 0.000000 -0.000000 -29.067158 -6.126758 -4.016828 -49.476019 56.042252 96.578998 -0.007819 89.907624 0.005975 -42.270610 -16.575889 -21.900196 2.561177 -6.931743 40.477808 5.810535 -4.512406 104.353754 0.093668 -0.930388 11.499259 0.000001 -0.000000 -0.000000 8.445319 -5.064783 11.035116 21.775628 -18.186489 -18.198327 -0.566990 -49.805637 -32.387845 -0.000002 -0.000002 0.000003 -0.210123 0.343942 5.319970 0.082728 -0.874731 10.802671 0.111702 -1.014963 12.561107 -0.000000 -0.000000 -0.000001 -2.926505 -2.730801 55.866559 5.180301 -4.627763 96.456519 1.650739 -3.558384 49.762023 -0.000000 0.000000 0.000001 -3.705184 -3.131617 62.351588 4.038771 -4.616037 82.361297 2.161457 -3.933252 57.567314 -0.000001 0.000000 -0.000001 -22.105743 42.872517 28.137296 21.917882 0.730228 -0.585962 4.298545 1.259260 -2.708073 -0.051622 0.000000 -0.000000 -0.000000 0.000000 0.000000 2.275971 5.234185 -5.577868 31.189530 -0.420367 1.071013 -19.007394 -17.356745 4.246727 -0.019407 0.000001 0.000002 -0.000000 0.000001 0.000000 
0.563595 194.213120 -1.136581 -16.687516 -38.860894 -8.938432 7.943417 -0.111929 -0.036064 16.351954 -0.246970 -0.558351 16.353157 -0.316098 -0.533342 -0.124130 7.720639 0.539686 -7.165864 21.778432 11.298350 -0.000000 0.000001 -0.000000 -0.000000 0.000001 -0.000000 -0.000000 0.000001 -0.000000 -37.973246 -4.585739 5.072508 -35.420227 -10.863027 -64.349371 0.000097 -61.590070 0.000094 -123.631437 -2.353763 21.473319 0.008658 4.655061 -43.777688 0.538971 2.456394 -24.747502 0.298120 1.846702 -18.338484 0.000003 -0.000001 0.000000 7.062057 16.164353 3.079606 19.473180 -1.474873 7.636922 -4.536191 -9.613107 1.492969 0.000003 0.000002 -0.000002 -0.938362 0.526168 -19.618330 1.845405 4.268410 -46.745910 0.074257 0.930816 -9.122442 -0.000003 -0.000000 0.000003 -0.028953 5.805844 -61.679784 2.232698 4.601156 -51.751281 0.631953 2.648636 -26.835255 -0.000003 0.000000 0.000004 -4.414442 6.359216 -79.186119 1.194596 3.546830 -37.217971 0.013135 -0.392484 3.832889 -0.000003 -0.000001 0.000000 -25.532716 -5.090186 -2.339651 -45.212243 55.155133 91.203468 -0.001528 91.216077 0.001576 -39.350362 -15.486334 -19.196404 2.559210 -7.072286 38.195043 5.670531 -4.545834 102.580706 0.062235 -0.759598 9.366751 0.000002 -0.000000 -0.000000 8.445309 -5.064774 11.035125 21.775635 -18.186480 -18.198288 -0.567011 -49.805627 -32.387873 -0.000001 -0.000000 -0.000001 -0.089862 0.596862 2.768752 -0.000009 0.000012 0.000002 0.015210 0.376480 -4.626509 -0.000000 -0.000000 -0.000003 -2.822774 -2.785658 55.739436 5.085361 -4.637490 95.281146 1.645148 -3.553670 49.671991 -0.000000 -0.000000 0.000001 -3.649054 -3.094672 61.872279 4.003564 -4.611173 81.923324 2.155922 -3.929714 57.486485 0.000000 -0.000000 -0.000002 -21.865824 42.805103 27.758478 21.840496 0.801638 -0.553917 4.305547 1.289008 -2.730898 -0.049853 0.000003 0.000000 -0.000000 0.000001 0.000000 2.251499 5.183877 -5.736898 31.230552 -0.365281 1.062986 -19.066919 -17.447804 4.254703 -0.027476 0.000017 -0.000001 0.000000 0.000002 0.000000 
